<svg id="asperges-link" data-name="asperges-link" xmlns="http://www.w3.org/2000/svg" viewBox="0 0 71.69 98.13" width="36" height="49" ><defs><style>.cls-1{fill:#98ae32;}</style></defs><path class="cls-1" d="M66.35,98.13,71.69,88A162.54,162.54,0,0,0,44.43,31.9q-.39-1.74-.93-3.48a9.92,9.92,0,0,0-.67-1.74,1.74,1.74,0,0,0-.89-.9c-.4-.15-1.3,0-1.41.45l-1.22-3.55a9.73,9.73,0,0,0-1-2.37,3.11,3.11,0,0,0-2-1.4.55.55,0,0,0-.36,0,.68.68,0,0,0-.29.29h0a11.38,11.38,0,0,0-3.74-8.51c-2.73-2.53-6.24-4.1-9.68-5.57L10.09,0c2.24,3.84,5.43,10.06,8.07,14.68C22,21.45,29,24.54,32.31,23.74c.63.69,1.25,1.42,1.87,2.21a1.25,1.25,0,0,0-1.42.31c-.47.66,0,1.56.41,2.19a25.9,25.9,0,0,0,5.41,5.6c-.4-.22-1.44.34-1.73.78a1.53,1.53,0,0,0,.1,1.62,4.65,4.65,0,0,0,1.25,1.17c1.53,1.06,3.08,2.19,4.57,3.39C50.47,59.41,58.69,79.89,66.35,98.13Z"/><path class="cls-1" d="M49.49,66.56A131.2,131.2,0,0,0,30,40.15c-.33-.88-.68-1.76-1.07-2.63a7,7,0,0,0-.66-1.31,1.49,1.49,0,0,0-.78-.62c-.33-.07-1.05.15-1.07.49l-1.29-2.73a7.24,7.24,0,0,0-1-1.8,2.4,2.4,0,0,0-1.73-.91.54.54,0,0,0-.28.05.52.52,0,0,0-.2.26h0a8.9,8.9,0,0,0-3.74-6.28C15.76,22.86,12.88,22,10,21.21L0,18.34c2.12,2.8,5.23,7.39,7.73,10.77,3.63,4.93,9.36,6.71,11.91,5.8a20.39,20.39,0,0,1,1.65,1.51,1,1,0,0,0-1.08.37c-.28.55.14,1.21.56,1.67a20.29,20.29,0,0,0,4.78,3.88c-.34-.13-1.08.42-1.26.79a1.22,1.22,0,0,0,.23,1.26,3.57,3.57,0,0,0,1.09.8c1.3.72,2.63,1.46,3.91,2.26,4.91,8.65,10.07,17.93,15.14,27A21.61,21.61,0,0,0,49.49,66.56Z"/></svg>