<svg id="Calque_1" data-name="Calque 1" xmlns="http://www.w3.org/2000/svg" viewBox="0 0 78.8 88.11"><defs><style>.cls-1{fill:#98ae32;}</style></defs><title>Asperge</title><path class="cls-1" d="M43.59,55.11c-.74-1.76-1.4-3.56-2-5.33a4.39,4.39,0,0,0-.78-1.52,1.53,1.53,0,0,0-1.53-.54c-.5.15-1.32,1-1.22,1.45a26.24,26.24,0,0,0-3.89-6.75c-.48-.61-1.23-1.27-2-1a1.26,1.26,0,0,0-.69,1.28c-.58-.81-1.12-1.61-1.61-2.4,1.7-3,.64-10.53-4.8-16.1-3.72-3.81-8.82-8.6-11.89-11.81q.8,6.53,1.61,13.05c.46,3.71,1,7.52,2.68,10.84a11.34,11.34,0,0,0,7.15,5.94h0a.72.72,0,0,0-.36.2.58.58,0,0,0-.12.34,3.11,3.11,0,0,0,.79,2.35,9.35,9.35,0,0,0,2,1.62L30,48.88c-.43,0-.85.81-.82,1.24a1.74,1.74,0,0,0,.62,1.1,10.18,10.18,0,0,0,1.49,1.12q1.52,1,3.09,1.86A162.71,162.71,0,0,0,80.76,95.86L92,93.52C76.58,81.13,59.16,67.59,43.59,55.11Z" transform="translate(-13.18 -7.75)"/><path class="cls-1" d="M75.23,66.15c-7.33-7.38-14.83-14.89-21.79-22-.42-1.45-.77-2.93-1.1-4.38a3.54,3.54,0,0,0-.47-1.27,1.23,1.23,0,0,0-1.15-.57c-.4.07-1.13.63-1.1,1a20.75,20.75,0,0,0-2.41-5.67c-.33-.53-.85-1.12-1.45-1a1,1,0,0,0-.66.94c-.38-.68-.73-1.37-1-2C45.68,29,45.55,23,41.81,18.15c-2.56-3.34-6.11-7.59-8.22-10.4l0,10.4c0,3,0,6,1.09,8.77a8.9,8.9,0,0,0,5,5.33h0a.47.47,0,0,0-.3.12.5.5,0,0,0-.13.25,2.44,2.44,0,0,0,.4,1.92A7.13,7.13,0,0,0,41.1,36l2.27,2c-.33-.08-.74.55-.76.89a1.4,1.4,0,0,0,.38.92,6.88,6.88,0,0,0,1.07,1c.73.61,1.48,1.19,2.24,1.75a131.38,131.38,0,0,0,20,26.05A21.53,21.53,0,0,0,75.23,66.15Z" transform="translate(-13.18 -7.75)"/></svg>