<?xml version="1.0" encoding="utf-8"?>
<svg version="1.1" id="Calque_1" xmlns="http://www.w3.org/2000/svg" xmlns:xlink="http://www.w3.org/1999/xlink" 
	 viewBox="0 0 78.8 88.1" width="78.8" height="88.1" xml:space="preserve">
<style type="text/css">
	.st0{fill:#415a23;}
</style>
<path class="st0" d="M30.4,47.4c-0.7-1.8-1.4-3.6-2-5.3c-0.2-0.6-0.4-1.1-0.8-1.5c-0.4-0.5-1-0.7-1.5-0.5c-0.5,0.2-1.3,1-1.2,1.5
	c-1-2.4-2.3-4.7-3.9-6.8c-0.5-0.6-1.2-1.3-2-1c-0.5,0.2-0.8,0.8-0.7,1.3c-0.6-0.8-1.1-1.6-1.6-2.4c1.7-3,0.6-10.5-4.8-16.1
	C8.2,12.6,3.1,7.8,0,4.6C0.5,9,1.1,13.3,1.6,17.7c0.5,3.7,1,7.5,2.7,10.8c1.4,2.9,4,5.1,7.1,5.9l0,0c-0.1,0-0.3,0.1-0.4,0.2
	C11,34.8,11,34.9,11,35c-0.1,0.9,0.2,1.7,0.8,2.3c0.6,0.6,1.3,1.2,2,1.6l3.1,2.2c-0.4,0-0.9,0.8-0.8,1.2c0.1,0.4,0.3,0.8,0.6,1.1
	c0.5,0.4,1,0.8,1.5,1.1c1,0.7,2,1.3,3.1,1.9c12.6,16.7,28.4,30.9,46.4,41.7l11.2-2.3C63.4,73.4,46,59.8,30.4,47.4z"/>
</svg>
