<svg id="Calque_1" data-name="Calque 1" xmlns="http://www.w3.org/2000/svg" viewBox="0 0 79.11 45.89" width="79" height="45"><defs><style>.cls-1{fill:#4ab16b;}.cls-2,.cls-3{fill:#415b25;},.cls-4{isolation:isolate;}</style></defs><path class="cls-1" d="M41.06,23.1A31.94,31.94,0,0,1,50.48,2.43a29.22,29.22,0,0,1,1.79,7.71,11.2,11.2,0,0,1-.08,3.37c-.54,2.54-2.48,4.73-4.63,6.42s-4.57,3-6.7,4.76Z"/><path class="cls-2" d="M39,18.76A29.76,29.76,0,0,0,28,0a31.26,31.26,0,0,0-.88,8,11,11,0,0,0,.42,3.33,10.56,10.56,0,0,0,5,5.51c2.2,1.28,4.62,2.16,6.8,3.48Z"/><g class="cls-4"><path class="cls-2" d="M2.19,29a7.7,7.7,0,0,0-.3-1.27,3.21,3.21,0,0,0-.43-.87,2.27,2.27,0,0,0-.62-.58A2.88,2.88,0,0,0,0,25.93l.07-.43.64.25a5.77,5.77,0,0,0,.88.26,5.89,5.89,0,0,0,1.09.14A5.14,5.14,0,0,0,4,26c0,.3-.09.67-.13,1.09s-.07.85-.09,1.25a7.71,7.71,0,0,1,.66-1.13,4.79,4.79,0,0,1,.91-1,3.38,3.38,0,0,1,1.14-.64,3.09,3.09,0,0,1,1.4-.08A2.12,2.12,0,0,1,9,26.05a3.4,3.4,0,0,1,.82,1.09,5.35,5.35,0,0,1,.47,1.54,7.3,7.3,0,0,1,0,1.82,10.52,10.52,0,0,1-.36,1.84,5.21,5.21,0,0,1-.71,1.5,3.25,3.25,0,0,1-1.07,1,2.45,2.45,0,0,1-1.47.27,3.47,3.47,0,0,1-1-.27,3.86,3.86,0,0,1-.88-.56,4.36,4.36,0,0,1-.71-.77,6,6,0,0,1-.54-.9c0,.3,0,.64,0,1s0,.76,0,1.15.05.77.09,1.16.07.74.12,1.07a3.38,3.38,0,0,0,.26.93,1.84,1.84,0,0,0,.38.52,1.33,1.33,0,0,0,.42.25l.36.12-.07.33A8.91,8.91,0,0,0,4,39a10.83,10.83,0,0,0-1.14,0,6.12,6.12,0,0,0-1,.11,3.18,3.18,0,0,0-.74.21v-.49l.41-.36A1.36,1.36,0,0,0,1.83,38a3.28,3.28,0,0,0,.24-.84A9.5,9.5,0,0,0,2.2,35.7c0-1.2.1-2.38.14-3.53A16.48,16.48,0,0,0,2.19,29Zm1.47,1.44a3.34,3.34,0,0,0,.13,1.09,4.29,4.29,0,0,0,.51,1.14,3.6,3.6,0,0,0,.83,1A2.09,2.09,0,0,0,6.25,34a1.56,1.56,0,0,0,.93-.18,2.2,2.2,0,0,0,.69-.6,4.05,4.05,0,0,0,.48-.87,6.87,6.87,0,0,0,.29-1,8.69,8.69,0,0,0,.15-.94c0-.29.05-.54.06-.74a5.51,5.51,0,0,0-.1-1,4.14,4.14,0,0,0-.34-1,2.36,2.36,0,0,0-.59-.78A1.35,1.35,0,0,0,7,26.56a2.16,2.16,0,0,0-1.2.35,4.44,4.44,0,0,0-1,.95A5.64,5.64,0,0,0,4,29.12,4.31,4.31,0,0,0,3.66,30.41Z"/><path class="cls-2" d="M19.38,38.15a2.46,2.46,0,0,1-.17.5,1.6,1.6,0,0,1-.35.48,1.36,1.36,0,0,1-.54.33,1.3,1.3,0,0,1-.76,0,1.06,1.06,0,0,1-.68-.49,2.46,2.46,0,0,1-.36-1,3.86,3.86,0,0,1-.39.51,2.88,2.88,0,0,1-.55.49,3.29,3.29,0,0,1-.73.35,2.4,2.4,0,0,1-.9.09,2.63,2.63,0,0,1-1.17-.35,3.06,3.06,0,0,1-.86-.78,3.31,3.31,0,0,1-.51-1.09,3.57,3.57,0,0,1-.1-1.27,2.69,2.69,0,0,1,.36-1.12,2.28,2.28,0,0,1,.72-.76,2.7,2.7,0,0,1,1-.39,4,4,0,0,1,1.15,0,2.72,2.72,0,0,1,1.3.46,2.9,2.9,0,0,1,.79.82,11.79,11.79,0,0,0,.06-1.71,6.54,6.54,0,0,0-.28-1.66,2.91,2.91,0,0,0-.75-1.25,1.81,1.81,0,0,0-1.37-.48,2,2,0,0,0-1,.22,2,2,0,0,0-.62.51,1.93,1.93,0,0,0-.41,1.08,1,1,0,0,0,.11.39,1.5,1.5,0,0,0,.29.4,1.48,1.48,0,0,0,.45.28,1.05,1.05,0,0,0,.59,0,.88.88,0,0,0,.4-.15,1.06,1.06,0,0,0,.28-.28,1,1,0,0,0,.15-.33,1.29,1.29,0,0,0,0-.33.44.44,0,0,0-.1-.3.6.6,0,0,0-.25-.2.52.52,0,0,0-.31-.05.56.56,0,0,0-.31.17.57.57,0,0,1,.31.06.33.33,0,0,1,.16.32.34.34,0,0,1-.16.29.59.59,0,0,1-.35.08.61.61,0,0,1-.34-.17.59.59,0,0,1-.16-.46.62.62,0,0,1,.25-.5.88.88,0,0,1,.58-.21,1,1,0,0,1,.74.31,1.12,1.12,0,0,1,.34.87,1,1,0,0,1-.1.41,1.32,1.32,0,0,1-.28.4,1.61,1.61,0,0,1-.51.33,2,2,0,0,1-.72.13A1.66,1.66,0,0,1,12.6,33a1.83,1.83,0,0,1-.56-.42,1.55,1.55,0,0,1-.33-.55,1.58,1.58,0,0,1-.12-.58,1.93,1.93,0,0,1,.18-.71,2.36,2.36,0,0,1,.54-.8,3.16,3.16,0,0,1,.94-.66A2.94,2.94,0,0,1,14.59,29a3,3,0,0,1,2.9,1.47,6.76,6.76,0,0,1,.26,4.36,12.6,12.6,0,0,0-.22,1.89,4.85,4.85,0,0,0,.08,1.17,1.06,1.06,0,0,0,.31.6.78.78,0,0,0,.79.18.67.67,0,0,0,.27-.17.87.87,0,0,0,.18-.41Zm-2.93-.88A12,12,0,0,1,16.5,36a2.34,2.34,0,0,0-.56-1,1.67,1.67,0,0,0-1-.55,2.57,2.57,0,0,0-.83,0,1.92,1.92,0,0,0-.75.31,1.6,1.6,0,0,0-.52.65,2,2,0,0,0-.14,1,2.36,2.36,0,0,0,.53,1.42,1.51,1.51,0,0,0,1.31.43,2.2,2.2,0,0,0,1.12-.33A4.08,4.08,0,0,0,16.45,37.27Z"/><path class="cls-2" d="M21.78,32.25A5.87,5.87,0,0,1,22.37,31a6,6,0,0,1,.88-1.16,3.7,3.7,0,0,1,1.07-.8,2.25,2.25,0,0,1,1.21-.26,1.32,1.32,0,0,1,.94.5,3.58,3.58,0,0,1,.6,1.07,6.11,6.11,0,0,1,.31,1.26,7.61,7.61,0,0,1,.06,1.09,3.94,3.94,0,0,1-.22,1c-.12.33-.26.66-.4,1s-.28.67-.41,1a3.71,3.71,0,0,0-.22,1.1,2.77,2.77,0,0,0,.13,1.08,1.79,1.79,0,0,0,.47.79,1,1,0,0,0,.74.24,1.42,1.42,0,0,0,.88-.6l.22.19a1.93,1.93,0,0,1-.57.58,1.59,1.59,0,0,1-.94.29,1.86,1.86,0,0,1-.72-.15,1.89,1.89,0,0,1-.64-.47,2.49,2.49,0,0,1-.47-.82,4,4,0,0,1,0-2.36c.1-.35.22-.7.34-1s.23-.7.33-1.08a4.56,4.56,0,0,0,.13-1.26,3.49,3.49,0,0,0-.2-1.05,1.75,1.75,0,0,0-.4-.62,1.1,1.1,0,0,0-.5-.28,1.45,1.45,0,0,0-.5,0,2,2,0,0,0-.95.53,4.74,4.74,0,0,0-.88,1.11A6.54,6.54,0,0,0,22,33.36a6.43,6.43,0,0,0-.26,1.74v0c0,.29,0,.55,0,.77a2.36,2.36,0,0,0,0,.55,2.72,2.72,0,0,0,.09.79,1.63,1.63,0,0,0,.22.44.61.61,0,0,0,.27.22,1.17,1.17,0,0,0,.25.08l0,.31a4.48,4.48,0,0,0-.61-.06,5.77,5.77,0,0,0-.81,0,5.9,5.9,0,0,0-.89.19,3.47,3.47,0,0,0-.85.39l-.12-.25.46-.37a1.53,1.53,0,0,0,.35-.43,2.69,2.69,0,0,0,.25-.67,7.32,7.32,0,0,0,.16-1.1c.07-.91.11-1.81.14-2.69a22,22,0,0,0-.07-2.48,1.11,1.11,0,0,0-.19-.55A.71.71,0,0,0,20,30a1.27,1.27,0,0,0-.44-.08l-.43,0,0-.3.79-.08.79-.11c.26,0,.49-.07.69-.11a2,2,0,0,0,.48-.15c0,.37,0,.74-.05,1.1s0,.7,0,1S21.78,31.94,21.78,32.25Z"/><path class="cls-2" d="M28.36,38.71a2.32,2.32,0,0,0,.66-.37,2,2,0,0,0,.39-.45,1.28,1.28,0,0,0,.23-.54A16.27,16.27,0,0,0,30,34a13.58,13.58,0,0,0-.24-2.75,1.9,1.9,0,0,0-.7-1.17,1.4,1.4,0,0,0-.71-.31v-.28c.23,0,.44,0,.65.05h1.43a2.55,2.55,0,0,0,.39,0,1.72,1.72,0,0,1,.39,0c0,.41-.06.84-.09,1.27s0,.83-.05,1.17,0,.8,0,1.18,0,.9-.06,1.4,0,1,0,1.43a9.35,9.35,0,0,0,.12,1.19,1.14,1.14,0,0,0,.28.67,2.4,2.4,0,0,0,.28.14,3.33,3.33,0,0,0,.37.14c.16,0,.35.09.58.13l0,.3H31.43l-.56,0a7.76,7.76,0,0,0-.78.07l-.78.08-.83.12Zm1.78-10.4a1.05,1.05,0,0,1-.83-.25,1,1,0,0,1-.13-1.34,1.1,1.1,0,0,1,.76-.39,1,1,0,0,1,.85.23,1.12,1.12,0,0,1,.38.67,1,1,0,0,1-.19.71A1.06,1.06,0,0,1,30.14,28.31Z"/><path class="cls-2" d="M33,34.09a5.5,5.5,0,0,1,.44-1.91,5,5,0,0,1,1-1.52,4.42,4.42,0,0,1,1.41-1,3.19,3.19,0,0,1,1.64-.23,2.29,2.29,0,0,1,1.31.53,2.2,2.2,0,0,1,.65.92,3.1,3.1,0,0,1,.21,1q0,.5,0,.78t-.06.57l-.09.62c0,.2,0,.39,0,.57a1.72,1.72,0,0,0,0,.44l-1-.3a8.77,8.77,0,0,0-1.24-.25A8,8,0,0,0,36,34.31a5.06,5.06,0,0,0-1.43.25,6.37,6.37,0,0,0,.09,1.31A5.73,5.73,0,0,0,35,37.11a4.28,4.28,0,0,0,.53.89,2.28,2.28,0,0,0,.63.58,1.49,1.49,0,0,0,.69.21,1.18,1.18,0,0,0,.72-.21,1.27,1.27,0,0,0,.45-.5,1,1,0,0,0,.12-.59,1.64,1.64,0,0,0-.38-.8l2.17-.1c-.08.23-.2.52-.35.87a4.56,4.56,0,0,1-.64,1,3.2,3.2,0,0,1-1,.82,2.55,2.55,0,0,1-1.42.29A2.81,2.81,0,0,1,35,39a4,4,0,0,1-1.12-1.24,6.12,6.12,0,0,1-.68-1.72A7.31,7.31,0,0,1,33,34.09Zm4.3-4.16a1.38,1.38,0,0,0-.94.24,2.89,2.89,0,0,0-.83.84,5.75,5.75,0,0,0-.64,1.29,8,8,0,0,0-.36,1.56,17.85,17.85,0,0,1,1.84-.13,9.85,9.85,0,0,1,1.58.12,5.76,5.76,0,0,0,.34-1,4.42,4.42,0,0,0,.14-1.24,2.34,2.34,0,0,0-.27-1.09A1,1,0,0,0,37.34,29.93Z"/><path class="cls-2" d="M48.47,31.31a3.25,3.25,0,0,1-.06.51,3.12,3.12,0,0,0-.06.37.74.74,0,0,0,0,.3.92.92,0,0,0,.19.32,5.58,5.58,0,0,0-.84-.2l-.68-.1h-.59a1.45,1.45,0,0,0,.23-.54c0-.19.07-.44.1-.73a2.82,2.82,0,0,0,0-.64.45.45,0,0,0-.34-.41,1.18,1.18,0,0,0-.27,0,.68.68,0,0,0-.31.08,1.93,1.93,0,0,0-.4.25,3.33,3.33,0,0,0-.5.5,7,7,0,0,0-.71,1,8.72,8.72,0,0,0-.54,1,6.88,6.88,0,0,0-.35,1,3.47,3.47,0,0,0-.15.79.12.12,0,0,1,0,.07c0,.45,0,.87.09,1.27s.07.72.1,1a3.63,3.63,0,0,0,.15.66,1.56,1.56,0,0,0,.22.43,1.12,1.12,0,0,0,.26.27l.26.19,0,.36a2.38,2.38,0,0,0-.69-.15,6.21,6.21,0,0,0-1,0,7.57,7.57,0,0,0-1,.16,3.11,3.11,0,0,0-.88.33l-.06-.4a2.15,2.15,0,0,0,.9-.72A3.22,3.22,0,0,0,42,36.62c0-.37.07-.75.11-1.14s.07-.79.08-1.2,0-.82,0-1.25A6.89,6.89,0,0,0,42,31.71a7.3,7.3,0,0,0-.31-.9,2.76,2.76,0,0,0-.36-.65.85.85,0,0,0-.47-.37l0-.4.53.07.69.06c.24,0,.49,0,.74,0s.5,0,.73,0c0,.21-.1.59-.18,1.16s-.14,1.21-.18,1.91a10.64,10.64,0,0,1,.59-1.16,6.21,6.21,0,0,1,.85-1.18,4.35,4.35,0,0,1,1.09-.88A2.35,2.35,0,0,1,47,29.09a1.38,1.38,0,0,1,.72.3,1.78,1.78,0,0,1,.45.57,2.42,2.42,0,0,1,.22.69A3.21,3.21,0,0,1,48.47,31.31Z"/><path class="cls-2" d="M49.06,28.85c-.14-.39-.26-.72-.37-1a2.28,2.28,0,0,0-.34-.63,1.09,1.09,0,0,0-.5-.34,3.05,3.05,0,0,0-.81-.14v-.38c.29,0,.63.06,1,.08a9.88,9.88,0,0,0,1.2,0,8.24,8.24,0,0,0,1.27-.22,5.59,5.59,0,0,0,1.26-.46l.14.46-.55.27a.93.93,0,0,0-.38.38,1.94,1.94,0,0,0-.16.68,4.87,4.87,0,0,0,.07,1.14c0,.23.09.53.16.91s.17.79.27,1.24.22.93.35,1.43.25,1,.38,1.5.25,1,.36,1.43.22.85.32,1.19c.22-.52.43-1.1.65-1.73s.41-1.27.59-1.89.34-1.22.48-1.77.23-1,.29-1.39a7.05,7.05,0,0,0,.1-1.08,2.18,2.18,0,0,0-.08-.68,1.06,1.06,0,0,0-.25-.43,2.17,2.17,0,0,0-.36-.29l.12-.47a4,4,0,0,0,.85.22c.34.06.7.11,1.09.15l1.2.1,1.25,0-.1.29a2.49,2.49,0,0,0-1.59.8,6.18,6.18,0,0,0-1.14,2.05q-.24.67-.51,1.47c-.18.52-.36,1.07-.54,1.63s-.35,1.12-.52,1.69-.31,1.12-.44,1.65-.18.76-.23,1.09-.07.57-.09.83a.7.7,0,0,0,.11.54l-1,.38a6.46,6.46,0,0,1-.49-.77,5.57,5.57,0,0,1-.36-.84q-.17-.48-.36-1.2l-.51-1.84c-.21-.75-.4-1.41-.56-2s-.31-1.11-.46-1.58-.28-.91-.41-1.31S49.2,29.24,49.06,28.85Z"/><path class="cls-2" d="M57.53,34.09A5.29,5.29,0,0,1,58,32.18a5.11,5.11,0,0,1,1-1.52,4.35,4.35,0,0,1,1.42-1A3.16,3.16,0,0,1,62,29.47a2.32,2.32,0,0,1,1.31.53,2.29,2.29,0,0,1,.65.92,3.1,3.1,0,0,1,.21,1q0,.5,0,.78t-.06.57l-.09.62a3.82,3.82,0,0,0,0,.57,1.36,1.36,0,0,0,0,.44l-1-.3a8.49,8.49,0,0,0-1.24-.25,7.91,7.91,0,0,0-1.39-.06,5.12,5.12,0,0,0-1.43.25,6.37,6.37,0,0,0,.1,1.31,5.22,5.22,0,0,0,.37,1.24A4.25,4.25,0,0,0,60,38a2.6,2.6,0,0,0,.63.58,1.53,1.53,0,0,0,.7.21,1.18,1.18,0,0,0,.72-.21,1.27,1.27,0,0,0,.45-.5,1,1,0,0,0,.11-.59,1.61,1.61,0,0,0-.37-.8l2.17-.1q-.12.34-.36.87a4.17,4.17,0,0,1-.63,1,3.45,3.45,0,0,1-1,.82,2.57,2.57,0,0,1-1.42.29A2.75,2.75,0,0,1,59.5,39a3.84,3.84,0,0,1-1.12-1.24,6.12,6.12,0,0,1-.68-1.72A6.94,6.94,0,0,1,57.53,34.09Zm4.3-4.16a1.4,1.4,0,0,0-.95.24,3.16,3.16,0,0,0-.83.84,5.34,5.34,0,0,0-.63,1.29,8.06,8.06,0,0,0-.37,1.56,18,18,0,0,1,1.84-.13,9.67,9.67,0,0,1,1.58.12,5,5,0,0,0,.35-1A4.82,4.82,0,0,0,63,31.57a2.34,2.34,0,0,0-.27-1.09A1.06,1.06,0,0,0,61.83,29.93Z"/><path class="cls-2" d="M73,31.31a3.25,3.25,0,0,1-.06.51,3.12,3.12,0,0,0-.06.37,1,1,0,0,0,0,.3.79.79,0,0,0,.19.32,5.41,5.41,0,0,0-.85-.2l-.68-.1h-.59a1.32,1.32,0,0,0,.24-.54,5.57,5.57,0,0,0,.09-.73,3.51,3.51,0,0,0,0-.64.46.46,0,0,0-.35-.41,1.1,1.1,0,0,0-.26,0,.65.65,0,0,0-.31.08,1.7,1.7,0,0,0-.4.25,2.92,2.92,0,0,0-.5.5,6.26,6.26,0,0,0-.71,1,8.72,8.72,0,0,0-.54,1,8.54,8.54,0,0,0-.36,1,5.08,5.08,0,0,0-.15.79s0,.06,0,.07c0,.45.05.87.08,1.27s.07.72.11,1a3,3,0,0,0,.14.66,1.9,1.9,0,0,0,.22.43,1.34,1.34,0,0,0,.26.27l.26.19,0,.36a2.46,2.46,0,0,0-.7-.15,6.1,6.1,0,0,0-1,0,7.34,7.34,0,0,0-1,.16,3.31,3.31,0,0,0-.89.33l0-.4a2.19,2.19,0,0,0,.89-.72,3.12,3.12,0,0,0,.52-1.66c0-.37.07-.75.11-1.14s.07-.79.08-1.2,0-.82,0-1.25a7.78,7.78,0,0,0-.19-1.32,9.46,9.46,0,0,0-.31-.9,3.72,3.72,0,0,0-.36-.65.83.83,0,0,0-.48-.37l0-.4.53.07.68.06c.25,0,.49,0,.75,0s.5,0,.73,0c-.05.21-.11.59-.18,1.16s-.14,1.21-.19,1.91a12.8,12.8,0,0,1,.59-1.16,7.23,7.23,0,0,1,.85-1.18,4.39,4.39,0,0,1,1.1-.88,2.32,2.32,0,0,1,1.33-.27,1.38,1.38,0,0,1,.72.3,1.81,1.81,0,0,1,.46.57,2.78,2.78,0,0,1,.22.69A2.59,2.59,0,0,1,73,31.31Z"/><path class="cls-2" d="M77.52,38.22a1.14,1.14,0,0,0,.74-.28,1.48,1.48,0,0,0,.49-.93l.36.13a2,2,0,0,1-.32.85,2.74,2.74,0,0,1-.72.72,2.48,2.48,0,0,1-1,.38A1.89,1.89,0,0,1,76,38.91a2,2,0,0,1-.9-.76,2.81,2.81,0,0,1-.35-1.08,7.44,7.44,0,0,1,0-1.34c0-.48.05-1,.05-1.5,0-.3,0-.66,0-1.07s0-.85,0-1.31,0-.94-.08-1.43-.07-1-.11-1.45c-.39.05-.76.1-1.12.17a5,5,0,0,0-.89.23,2.27,2.27,0,0,1,0-.24c0-.06,0-.12,0-.17a.91.91,0,0,0,0-.17,1.16,1.16,0,0,0,0-.27l.93-.07,1-.07,0-.48c0-.15,0-.31-.06-.46a3.8,3.8,0,0,0-.32-1.3,2.29,2.29,0,0,0-.51-.74A1.53,1.53,0,0,0,73,25l-.36-.13,0-.33a2.86,2.86,0,0,0,.81.18,5.79,5.79,0,0,0,1,0,7.25,7.25,0,0,0,1-.16,4.39,4.39,0,0,0,.89-.31,8.44,8.44,0,0,0-.3,1.54c-.09.71-.16,1.53-.22,2.46a10.42,10.42,0,0,0,1.31-.13.48.48,0,0,0-.09.33,1.88,1.88,0,0,0,0,.43c-.2,0-.41,0-.62,0h-.68c0,.67-.06,1.37-.07,2.1s0,1.45,0,2.16.07,1.4.13,2.08.15,1.3.26,1.87a1.41,1.41,0,0,0,.48.86A1.27,1.27,0,0,0,77.52,38.22Z"/></g></svg>