<svg id="Calque_1" data-name="Calque 1" xmlns="http://www.w3.org/2000/svg" viewBox="0 0 79.11 48.35"><defs><style>.cls-1{fill:#4ab16b;}.cls-2,.cls-3{fill:#415b25;}.cls-3{font-size:17.77px;font-family:MysteryQuest, Mystery Quest;}</style></defs><title>logo</title><path class="cls-1" d="M55.19,45.25a32,32,0,0,1,9.42-20.67,28.86,28.86,0,0,1,1.79,7.71,10.91,10.91,0,0,1-.08,3.37c-.54,2.54-2.48,4.73-4.63,6.42s-4.57,3-6.7,4.76Z" transform="translate(-9.27 -22.15)"/><path class="cls-2" d="M53.12,40.91a29.68,29.68,0,0,0-11-18.76,31.56,31.56,0,0,0-.88,8,11.32,11.32,0,0,0,.42,3.33,10.55,10.55,0,0,0,5,5.51c2.2,1.28,4.62,2.16,6.8,3.48Z" transform="translate(-9.27 -22.15)"/><text class="cls-3" transform="translate(0.88 41.26)">PanierVert</text></svg>