<svg xmlns="http://www.w3.org/2000/svg" viewBox="0 0 53.96 48.45"><defs><style>.cls-1{isolation:isolate;}.cls-2{fill:#d33416;opacity:0.65;mix-blend-mode:multiply;}.cls-3{fill:#567c2d;}</style></defs><title>Tomate</title><g class="cls-1"><g id="Calque_1" data-name="Calque 1"><path class="cls-2" d="M25.23,51.34c-1.68,11,5.53,22.78,16,26a30.71,30.71,0,0,0,11.41,1.05c8.83-.67,18-4.25,22.89-11.78,5.31-8.11,4.35-19.76-1.69-27.38C60.73,22.79,28.55,29.54,25.23,51.34Z" transform="translate(-24.99 -30.1)"/><path class="cls-3" d="M56.09,30.91c-3.64,1.64-8.69,5.46-9.91,9.26s1.14,7.79-.33,11.5c-1.16-4-5-6.68-8.85-8.31s-8-3.25-10.13-6.83c.53,4.1,3.14,6.1,6.58,8.4s7.23,4.69,8.62,8.58c-3.08-1.09-6.36,1.27-8,4.08-.62,1-1,2.22-1.63,3.23-1.57,2.41-4.52,3.42-7.26,4.28,4.82.1,8.8.15,11.73-3.68.8-1,1.33-2.28,2.21-3.25a5.81,5.81,0,0,1,4.7-1.82c-.59,3,1.31,5.28,3.36,7.57,1.31,1.45,3,2.51,4.24,4s1.81,3.87.58,5.38a10.16,10.16,0,0,0,.2-10.17c-1.58-2.61-4.58-5-3.88-8,.55-2.34,3.07-3.3,5.46-3.44s4.75.63,7.15.8S66,52.06,67.17,50c-1.7,1.3-4.21.67-6.23,0s-3.9-1.79-6-2.24-4.59-.05-5.77,1.73c1.21-2.76-.24-6.26.45-9.2a13.1,13.1,0,0,1,2.51-4.56A30.16,30.16,0,0,1,56.09,30.91Z" transform="translate(-24.99 -30.1)"/></g></g></svg>