<?xml version="1.0" encoding="utf-8"?>
<!-- Generator: Adobe Illustrator 25.2.3, SVG Export Plug-In . SVG Version: 6.00 Build 0)  -->
<svg version="1.1" id="Calque_1" xmlns="http://www.w3.org/2000/svg" xmlns:xlink="http://www.w3.org/1999/xlink" width="26" height="28"
	 viewBox="0 0 78.8 83.5" style="enable-background:new 0 0 78.8 83.5;" xml:space="preserve">
<style type="text/css">
	.st1{fill:#98AE32;}
</style>

<path class="st1" d="M30.4,42.7c-0.7-1.8-1.4-3.6-2-5.3c-0.2-0.6-0.4-1.1-0.8-1.5c-0.4-0.5-1-0.7-1.5-0.5c-0.5,0.2-1.3,1-1.2,1.5
	c-1-2.4-2.3-4.7-3.9-6.8c-0.5-0.6-1.2-1.3-2-1c-0.5,0.2-0.8,0.8-0.7,1.3c-0.6-0.8-1.1-1.6-1.6-2.4c1.7-3,0.6-10.5-4.8-16.1
	C8.2,8,3.1,3.2,0,0c0.5,4.4,1.1,8.7,1.6,13.1c0.5,3.7,1,7.5,2.7,10.8c1.4,2.9,4,5.1,7.1,5.9l0,0c-0.1,0-0.3,0.1-0.4,0.2
	C11,30.1,11,30.2,11,30.4c-0.1,0.9,0.2,1.7,0.8,2.3c0.6,0.6,1.3,1.2,2,1.6l3.1,2.2c-0.4,0-0.8,0.8-0.8,1.2c0.1,0.4,0.3,0.8,0.6,1.1
	c0.5,0.4,1,0.8,1.5,1.1c1,0.7,2,1.3,3.1,1.9c12.6,16.7,28.4,30.9,46.4,41.7l11.2-2.3C63.4,68.7,46,55.2,30.4,42.7z"/>
<path class="st1" d="M8.2,81.9c8-11.8,16.2-23.9,23.9-35.2c2-1.3,4.1-2.6,6.1-3.8c0.6-0.4,1.2-0.8,1.7-1.3c0.5-0.5,0.6-1.1,0.4-1.5
	c-0.3-0.3-1.4-0.7-1.9-0.5c2.8-1.8,5.3-3.8,7.5-5.9c0.7-0.7,1.3-1.5,0.9-2.1c-0.4-0.3-1-0.3-1.7-0.1c0.9-0.8,1.7-1.6,2.6-2.2
	c3.9,0.2,12.9-3.7,18.6-10.4c3.9-4.6,8.8-10.8,12.2-14.6L62.9,11c-4.5,1.9-9,3.8-12.7,6.6c-3.3,2.3-5.4,5.3-5.9,8.2l0,0
	c-0.1-0.1-0.2-0.2-0.3-0.2c-0.1,0-0.3,0-0.4,0c-1.1,0.3-2,0.9-2.7,1.6c-0.7,0.8-1.2,1.5-1.6,2.3L37.2,33c0-0.4-1.1-0.4-1.6-0.2
	c-0.5,0.2-0.9,0.6-1.2,0.9c-0.4,0.5-0.8,1.1-1.1,1.7c-0.6,1.1-1.2,2.2-1.7,3.3C19.7,50.1,9.4,62.2,0.9,74.7
	C2.4,77.7,4.9,80.1,8.2,81.9z"/>
</svg>
