<?xml version="1.0" encoding="utf-8"?>
<svg version="1.1" id="Calque_1" xmlns="http://www.w3.org/2000/svg" xmlns:xlink="http://www.w3.org/1999/xlink" width="46" height="73"
	 viewBox="0 0 57.7 91.2"  xml:space="preserve">
<style type="text/css">
	.st1{fill:#98AE32;}
</style>
<path class="st1" d="M8.7,91.2c4.9-13.2,9.9-26.6,14.7-39.2c1.6-1.8,3.3-3.5,4.9-5.2c0.5-0.5,1-1.1,1.3-1.6c0.3-0.6,0.4-1.2,0-1.5
	c-0.3-0.2-1.5-0.3-2,0.1c2.2-2.4,4.2-5,5.8-7.6c0.5-0.8,0.9-1.8,0.4-2.1c-0.4-0.2-1.1,0-1.6,0.4c0.6-1,1.3-1.9,1.9-2.8
	c3.8-1,11.4-7.1,15.3-14.9c2.7-5.4,5.9-12.4,8.2-16.9L44.4,10.4c-3.8,3-7.7,6-10.5,9.6c-2.6,3.1-3.9,6.4-3.7,9.3l0,0
	c-0.1-0.1-0.2-0.1-0.3-0.1c-0.1,0-0.3,0.1-0.4,0.1c-0.9,0.6-1.7,1.4-2.2,2.2c-0.5,0.9-0.8,1.8-1,2.6L25,38c-0.1-0.3-1.2,0-1.6,0.3
	c-0.4,0.4-0.8,0.8-0.9,1.2c-0.3,0.6-0.5,1.2-0.6,1.8c-0.3,1.2-0.6,2.4-0.9,3.5C12.3,58.7,5.2,72.8,0,86.7C2.1,89,5.1,90.5,8.7,91.2z
	"/>
</svg>
