<?xml version="1.0" encoding="utf-8"?>
<!-- Generator: Adobe Illustrator 25.2.3, SVG Export Plug-In . SVG Version: 6.00 Build 0)  -->
<svg version="1.1" id="Layer_1" xmlns="http://www.w3.org/2000/svg" xmlns:xlink="http://www.w3.org/1999/xlink" x="0px" y="0px"
	 viewBox="0 0 2000 2000" style="enable-background:new 0 0 2000 2000;" xml:space="preserve">
<style type="text/css">
	.st0{fill:#A2D29E;}
	.st1{fill:#40B871;}
	.st2{fill:#DAE7BE;}
	.st3{fill:#B8DDB4;}
	.st4{fill:#71C48B;}
</style>
<rect x="293.8" y="-6.2" transform="matrix(-1.836970e-16 1 -1 -1.836970e-16 393.75 -293.75)" class="st0" width="100" height="112.5"/>
<rect x="106.2" y="-6.2" transform="matrix(-1.836970e-16 1 -1 -1.836970e-16 206.25 -106.25)" class="st0" width="100" height="112.5"/>
<rect class="st1" width="100" height="100"/>
<rect y="100" class="st0" width="100" height="112.5"/>
<rect x="100" y="100" class="st2" width="112.5" height="112.5"/>
<rect y="287.5" class="st0" width="100" height="112.5"/>
<rect x="100" y="287.5" class="st2" width="112.5" height="112.5"/>
<rect x="287.5" y="212.5" class="st3" width="112.5" height="75"/>
<rect x="212.5" y="212.5" transform="matrix(-1 -1.224647e-16 1.224647e-16 -1 500 500)" class="st4" width="75" height="75"/>
<rect x="193.8" y="306.2" transform="matrix(-1.836970e-16 1 -1 -1.836970e-16 593.75 93.75)" class="st3" width="112.5" height="75"/>
<rect x="100" y="212.5" class="st3" width="112.5" height="75"/>
<rect x="193.8" y="118.8" transform="matrix(-1.836970e-16 1 -1 -1.836970e-16 406.25 -93.75)" class="st3" width="112.5" height="75"/>
<rect x="200" y="12.5" transform="matrix(-1.836970e-16 1 -1 -1.836970e-16 300 -200)" class="st4" width="100" height="75"/>
<rect y="212.5" transform="matrix(-1 -1.224647e-16 1.224647e-16 -1 100 500)" class="st4" width="100" height="75"/>
<rect x="793.8" y="-6.2" transform="matrix(-1.836970e-16 1 -1 -1.836970e-16 893.75 -793.75)" class="st0" width="100" height="112.5"/>
<rect x="606.2" y="-6.2" transform="matrix(-1.836970e-16 1 -1 -1.836970e-16 706.25 -606.25)" class="st0" width="100" height="112.5"/>
<rect x="400" class="st1" width="200" height="100"/>
<rect x="400" y="100" class="st0" width="200" height="112.5"/>
<rect x="400" y="287.5" class="st0" width="200" height="112.5"/>
<rect x="787.5" y="212.5" class="st3" width="112.5" height="75"/>
<rect x="712.5" y="212.5" transform="matrix(-1 -1.224647e-16 1.224647e-16 -1 1500 500)" class="st4" width="75" height="75"/>
<rect x="693.8" y="306.2" transform="matrix(-1.836970e-16 1 -1 -1.836970e-16 1093.75 -406.25)" class="st3" width="112.5" height="75"/>
<rect x="600" y="212.5" class="st3" width="112.5" height="75"/>
<rect x="693.8" y="118.8" transform="matrix(-1.836970e-16 1 -1 -1.836970e-16 906.25 -593.75)" class="st3" width="112.5" height="75"/>
<rect x="700" y="12.5" transform="matrix(-1.836970e-16 1 -1 -1.836970e-16 800 -700)" class="st4" width="100" height="75"/>
<rect x="400" y="212.5" transform="matrix(-1 -1.224647e-16 1.224647e-16 -1 1000 500)" class="st4" width="200" height="75"/>
<rect x="1293.8" y="-6.2" transform="matrix(-1.836970e-16 1 -1 -1.836970e-16 1393.75 -1293.75)" class="st0" width="100" height="112.5"/>
<rect x="1106.2" y="-6.2" transform="matrix(-1.836970e-16 1 -1 -1.836970e-16 1206.25 -1106.25)" class="st0" width="100" height="112.5"/>
<rect x="900" class="st1" width="200" height="100"/>
<rect x="900" y="100" class="st0" width="200" height="112.5"/>
<rect x="900" y="287.5" class="st0" width="200" height="112.5"/>
<rect x="1287.5" y="212.5" class="st3" width="112.5" height="75"/>
<rect x="1212.5" y="212.5" transform="matrix(-1 -1.224647e-16 1.224647e-16 -1 2500 500)" class="st4" width="75" height="75"/>
<rect x="1193.8" y="306.2" transform="matrix(-1.836970e-16 1 -1 -1.836970e-16 1593.75 -906.25)" class="st3" width="112.5" height="75"/>
<rect x="1100" y="212.5" class="st3" width="112.5" height="75"/>
<rect x="1193.8" y="118.8" transform="matrix(-1.836970e-16 1 -1 -1.836970e-16 1406.25 -1093.75)" class="st3" width="112.5" height="75"/>
<rect x="1200" y="12.5" transform="matrix(-1.836970e-16 1 -1 -1.836970e-16 1300 -1200)" class="st4" width="100" height="75"/>
<rect x="900" y="212.5" transform="matrix(-1 -1.224647e-16 1.224647e-16 -1 2000 500)" class="st4" width="200" height="75"/>
<rect x="1793.8" y="-6.2" transform="matrix(-1.836970e-16 1 -1 -1.836970e-16 1893.75 -1793.75)" class="st0" width="100" height="112.5"/>
<rect x="1606.2" y="-6.2" transform="matrix(-1.836970e-16 1 -1 -1.836970e-16 1706.25 -1606.25)" class="st0" width="100" height="112.5"/>
<rect x="1400" class="st1" width="200" height="100"/>
<rect x="1400" y="100" class="st0" width="200" height="112.5"/>
<rect x="1400" y="287.5" class="st0" width="200" height="112.5"/>
<rect x="1787.5" y="212.5" class="st3" width="112.5" height="75"/>
<rect x="1712.5" y="212.5" transform="matrix(-1 -1.224647e-16 1.224647e-16 -1 3500 500)" class="st4" width="75" height="75"/>
<rect x="1693.8" y="306.2" transform="matrix(-1.836970e-16 1 -1 -1.836970e-16 2093.75 -1406.25)" class="st3" width="112.5" height="75"/>
<rect x="1600" y="212.5" class="st3" width="112.5" height="75"/>
<rect x="1693.8" y="118.8" transform="matrix(-1.836970e-16 1 -1 -1.836970e-16 1906.25 -1593.75)" class="st3" width="112.5" height="75"/>
<rect x="1700" y="12.5" transform="matrix(-1.836970e-16 1 -1 -1.836970e-16 1800 -1700)" class="st4" width="100" height="75"/>
<rect x="1400" y="212.5" transform="matrix(-1 -1.224647e-16 1.224647e-16 -1 3000 500)" class="st4" width="200" height="75"/>
<rect x="243.8" y="443.8" transform="matrix(-1.836970e-16 1 -1 -1.836970e-16 843.75 156.25)" class="st0" width="200" height="112.5"/>
<rect x="56.2" y="443.8" transform="matrix(-1.836970e-16 1 -1 -1.836970e-16 656.25 343.75)" class="st0" width="200" height="112.5"/>
<rect y="400" class="st1" width="100" height="200"/>
<rect x="150" y="462.5" transform="matrix(-1.836970e-16 1 -1 -1.836970e-16 750 250)" class="st4" width="200" height="75"/>
<rect x="743.8" y="443.8" transform="matrix(-1.836970e-16 1 -1 -1.836970e-16 1343.75 -343.75)" class="st0" width="200" height="112.5"/>
<rect x="556.2" y="443.8" transform="matrix(-1.836970e-16 1 -1 -1.836970e-16 1156.25 -156.25)" class="st0" width="200" height="112.5"/>
<rect x="400" y="400" class="st1" width="200" height="200"/>
<rect x="650" y="462.5" transform="matrix(-1.836970e-16 1 -1 -1.836970e-16 1250 -250)" class="st4" width="200" height="75"/>
<rect x="1243.8" y="443.8" transform="matrix(-1.836970e-16 1 -1 -1.836970e-16 1843.75 -843.75)" class="st0" width="200" height="112.5"/>
<rect x="1056.2" y="443.8" transform="matrix(-1.836970e-16 1 -1 -1.836970e-16 1656.25 -656.25)" class="st0" width="200" height="112.5"/>
<rect x="900" y="400" class="st1" width="200" height="200"/>
<rect x="1150" y="462.5" transform="matrix(-1.836970e-16 1 -1 -1.836970e-16 1750 -750)" class="st4" width="200" height="75"/>
<rect x="1743.8" y="443.8" transform="matrix(-1.836970e-16 1 -1 -1.836970e-16 2343.75 -1343.75)" class="st0" width="200" height="112.5"/>
<rect x="1556.2" y="443.8" transform="matrix(-1.836970e-16 1 -1 -1.836970e-16 2156.25 -1156.25)" class="st0" width="200" height="112.5"/>
<rect x="1400" y="400" class="st1" width="200" height="200"/>
<rect x="1650" y="462.5" transform="matrix(-1.836970e-16 1 -1 -1.836970e-16 2250 -1250)" class="st4" width="200" height="75"/>
<rect x="287.5" y="100" class="st2" width="112.5" height="112.5"/>
<rect x="287.5" y="287.5" class="st2" width="112.5" height="112.5"/>
<rect x="600" y="100" class="st2" width="112.5" height="112.5"/>
<rect x="600" y="287.5" class="st2" width="112.5" height="112.5"/>
<rect x="787.5" y="100" class="st2" width="112.5" height="112.5"/>
<rect x="787.5" y="287.5" class="st2" width="112.5" height="112.5"/>
<rect x="1100" y="100" class="st2" width="112.5" height="112.5"/>
<rect x="1100" y="287.5" class="st2" width="112.5" height="112.5"/>
<rect x="1287.5" y="100" class="st2" width="112.5" height="112.5"/>
<rect x="1287.5" y="287.5" class="st2" width="112.5" height="112.5"/>
<rect x="1600" y="100" class="st2" width="112.5" height="112.5"/>
<rect x="1600" y="287.5" class="st2" width="112.5" height="112.5"/>
<rect x="1787.5" y="100" class="st2" width="112.5" height="112.5"/>
<rect x="1787.5" y="287.5" class="st2" width="112.5" height="112.5"/>
<rect x="1900" class="st1" width="100" height="100"/>
<rect x="1900" y="100" class="st0" width="100" height="112.5"/>
<rect x="1900" y="287.5" class="st0" width="100" height="112.5"/>
<rect x="1900" y="212.5" transform="matrix(-1 -1.224647e-16 1.224647e-16 -1 3900 500)" class="st4" width="100" height="75"/>
<rect x="1900" y="400" class="st1" width="100" height="200"/>
<rect y="600" class="st0" width="100" height="112.5"/>
<rect x="100" y="600" class="st2" width="112.5" height="112.5"/>
<rect y="787.5" class="st0" width="100" height="112.5"/>
<rect x="100" y="787.5" class="st2" width="112.5" height="112.5"/>
<rect x="287.5" y="712.5" class="st3" width="112.5" height="75"/>
<rect x="212.5" y="712.5" transform="matrix(-1 -1.224647e-16 1.224647e-16 -1 500 1500.0198)" class="st4" width="75" height="75"/>
<rect x="193.8" y="806.3" transform="matrix(-1.836970e-16 1 -1 -1.836970e-16 1093.7599 593.7599)" class="st3" width="112.5" height="75"/>
<rect x="100" y="712.5" class="st3" width="112.5" height="75"/>
<rect x="193.8" y="618.8" transform="matrix(-1.836970e-16 1 -1 -1.836970e-16 906.2599 406.2599)" class="st3" width="112.5" height="75"/>
<rect y="712.5" transform="matrix(-1 -1.224647e-16 1.224647e-16 -1 100 1500.0198)" class="st4" width="100" height="75"/>
<rect x="400" y="600" class="st0" width="200" height="112.5"/>
<rect x="400" y="787.5" class="st0" width="200" height="112.5"/>
<rect x="787.5" y="712.5" class="st3" width="112.5" height="75"/>
<rect x="712.5" y="712.5" transform="matrix(-1 -1.224647e-16 1.224647e-16 -1 1500 1500.0198)" class="st4" width="75" height="75"/>
<rect x="693.8" y="806.3" transform="matrix(-1.836970e-16 1 -1 -1.836970e-16 1593.7599 93.7599)" class="st3" width="112.5" height="75"/>
<rect x="600" y="712.5" class="st3" width="112.5" height="75"/>
<rect x="693.8" y="618.8" transform="matrix(-1.836970e-16 1 -1 -1.836970e-16 1406.2599 -93.7401)" class="st3" width="112.5" height="75"/>
<rect x="400" y="712.5" transform="matrix(-1 -1.224647e-16 1.224647e-16 -1 1000 1500.0198)" class="st4" width="200" height="75"/>
<rect x="900" y="600" class="st0" width="200" height="112.5"/>
<rect x="900" y="787.5" class="st0" width="200" height="112.5"/>
<rect x="1287.5" y="712.5" class="st3" width="112.5" height="75"/>
<rect x="1212.5" y="712.5" transform="matrix(-1 -1.224647e-16 1.224647e-16 -1 2500 1500.0198)" class="st4" width="75" height="75"/>
<rect x="1193.8" y="806.3" transform="matrix(-1.836970e-16 1 -1 -1.836970e-16 2093.76 -406.2401)" class="st3" width="112.5" height="75"/>
<rect x="1100" y="712.5" class="st3" width="112.5" height="75"/>
<rect x="1193.8" y="618.8" transform="matrix(-1.836970e-16 1 -1 -1.836970e-16 1906.2599 -593.7401)" class="st3" width="112.5" height="75"/>
<rect x="900" y="712.5" transform="matrix(-1 -1.224647e-16 1.224647e-16 -1 2000 1500.0198)" class="st4" width="200" height="75"/>
<rect x="1400" y="600" class="st0" width="200" height="112.5"/>
<rect x="1400" y="787.5" class="st0" width="200" height="112.5"/>
<rect x="1787.5" y="712.5" class="st3" width="112.5" height="75"/>
<rect x="1712.5" y="712.5" transform="matrix(-1 -1.224647e-16 1.224647e-16 -1 3500 1500.0198)" class="st4" width="75" height="75"/>
<rect x="1693.8" y="806.3" transform="matrix(-1.836970e-16 1 -1 -1.836970e-16 2593.76 -906.2401)" class="st3" width="112.5" height="75"/>
<rect x="1600" y="712.5" class="st3" width="112.5" height="75"/>
<rect x="1693.8" y="618.8" transform="matrix(-1.836970e-16 1 -1 -1.836970e-16 2406.26 -1093.7401)" class="st3" width="112.5" height="75"/>
<rect x="1400" y="712.5" transform="matrix(-1 -1.224647e-16 1.224647e-16 -1 3000 1500.0198)" class="st4" width="200" height="75"/>
<rect x="243.8" y="943.8" transform="matrix(-1.836970e-16 1 -1 -1.836970e-16 1343.7599 656.2599)" class="st0" width="200" height="112.5"/>
<rect x="56.2" y="943.8" transform="matrix(-1.836970e-16 1 -1 -1.836970e-16 1156.2599 843.7599)" class="st0" width="200" height="112.5"/>
<rect y="900" class="st1" width="100" height="200"/>
<rect x="150" y="962.5" transform="matrix(-1.836970e-16 1 -1 -1.836970e-16 1250.0099 750.0099)" class="st4" width="200" height="75"/>
<rect x="743.8" y="943.8" transform="matrix(-1.836970e-16 1 -1 -1.836970e-16 1843.7599 156.2599)" class="st0" width="200" height="112.5"/>
<rect x="556.2" y="943.8" transform="matrix(-1.836970e-16 1 -1 -1.836970e-16 1656.2599 343.7599)" class="st0" width="200" height="112.5"/>
<rect x="400" y="900" class="st1" width="200" height="200"/>
<rect x="650" y="962.5" transform="matrix(-1.836970e-16 1 -1 -1.836970e-16 1750.0099 250.0099)" class="st4" width="200" height="75"/>
<rect x="1243.8" y="943.8" transform="matrix(-1.836970e-16 1 -1 -1.836970e-16 2343.76 -343.7401)" class="st0" width="200" height="112.5"/>
<rect x="1056.2" y="943.8" transform="matrix(-1.836970e-16 1 -1 -1.836970e-16 2156.26 -156.2401)" class="st0" width="200" height="112.5"/>
<rect x="900" y="900" class="st1" width="200" height="200"/>
<rect x="1150" y="962.5" transform="matrix(-1.836970e-16 1 -1 -1.836970e-16 2250.01 -249.9901)" class="st4" width="200" height="75"/>
<rect x="1743.8" y="943.8" transform="matrix(-1.836970e-16 1 -1 -1.836970e-16 2843.76 -843.7401)" class="st0" width="200" height="112.5"/>
<rect x="1556.2" y="943.8" transform="matrix(-1.836970e-16 1 -1 -1.836970e-16 2656.26 -656.2401)" class="st0" width="200" height="112.5"/>
<rect x="1400" y="900" class="st1" width="200" height="200"/>
<rect x="1650" y="962.5" transform="matrix(-1.836970e-16 1 -1 -1.836970e-16 2750.01 -749.9901)" class="st4" width="200" height="75"/>
<rect x="287.5" y="600" class="st2" width="112.5" height="112.5"/>
<rect x="287.5" y="787.5" class="st2" width="112.5" height="112.5"/>
<rect x="600" y="600" class="st2" width="112.5" height="112.5"/>
<rect x="600" y="787.5" class="st2" width="112.5" height="112.5"/>
<rect x="787.5" y="600" class="st2" width="112.5" height="112.5"/>
<rect x="787.5" y="787.5" class="st2" width="112.5" height="112.5"/>
<rect x="1100" y="600" class="st2" width="112.5" height="112.5"/>
<rect x="1100" y="787.5" class="st2" width="112.5" height="112.5"/>
<rect x="1287.5" y="600" class="st2" width="112.5" height="112.5"/>
<rect x="1287.5" y="787.5" class="st2" width="112.5" height="112.5"/>
<rect x="1600" y="600" class="st2" width="112.5" height="112.5"/>
<rect x="1600" y="787.5" class="st2" width="112.5" height="112.5"/>
<rect x="1787.5" y="600" class="st2" width="112.5" height="112.5"/>
<rect x="1787.5" y="787.5" class="st2" width="112.5" height="112.5"/>
<rect x="1900" y="600" class="st0" width="100" height="112.5"/>
<rect x="1900" y="787.5" class="st0" width="100" height="112.5"/>
<rect x="1900" y="712.5" transform="matrix(-1 -1.224647e-16 1.224647e-16 -1 3900 1500.0198)" class="st4" width="100" height="75"/>
<rect x="1900" y="900" class="st1" width="100" height="200"/>
<rect y="1100" class="st0" width="100" height="112.5"/>
<rect x="100" y="1100" class="st2" width="112.5" height="112.5"/>
<rect y="1287.5" class="st0" width="100" height="112.5"/>
<rect x="100" y="1287.5" class="st2" width="112.5" height="112.5"/>
<rect x="287.5" y="1212.5" class="st3" width="112.5" height="75"/>
<rect x="212.5" y="1212.5" transform="matrix(-1 -1.224647e-16 1.224647e-16 -1 500 2500.0396)" class="st4" width="75" height="75"/>
<rect x="193.8" y="1306.3" transform="matrix(-1.836970e-16 1 -1 -1.836970e-16 1593.7698 1093.7698)" class="st3" width="112.5" height="75"/>
<rect x="100" y="1212.5" class="st3" width="112.5" height="75"/>
<rect x="193.8" y="1118.8" transform="matrix(-1.836970e-16 1 -1 -1.836970e-16 1406.2698 906.2698)" class="st3" width="112.5" height="75"/>
<rect y="1212.5" transform="matrix(-1 -1.224647e-16 1.224647e-16 -1 100 2500.0396)" class="st4" width="100" height="75"/>
<rect x="400" y="1100" class="st0" width="200" height="112.5"/>
<rect x="400" y="1287.5" class="st0" width="200" height="112.5"/>
<rect x="787.5" y="1212.5" class="st3" width="112.5" height="75"/>
<rect x="712.5" y="1212.5" transform="matrix(-1 -1.224647e-16 1.224647e-16 -1 1500 2500.0396)" class="st4" width="75" height="75"/>
<rect x="693.8" y="1306.3" transform="matrix(-1.836970e-16 1 -1 -1.836970e-16 2093.7698 593.7698)" class="st3" width="112.5" height="75"/>
<rect x="600" y="1212.5" class="st3" width="112.5" height="75"/>
<rect x="693.8" y="1118.8" transform="matrix(-1.836970e-16 1 -1 -1.836970e-16 1906.2698 406.2698)" class="st3" width="112.5" height="75"/>
<rect x="400" y="1212.5" transform="matrix(-1 -1.224647e-16 1.224647e-16 -1 1000 2500.0396)" class="st4" width="200" height="75"/>
<rect x="900" y="1100" class="st0" width="200" height="112.5"/>
<rect x="900" y="1287.5" class="st0" width="200" height="112.5"/>
<rect x="1287.5" y="1212.5" class="st3" width="112.5" height="75"/>
<rect x="1212.5" y="1212.5" transform="matrix(-1 -1.224647e-16 1.224647e-16 -1 2500 2500.0396)" class="st4" width="75" height="75"/>
<rect x="1193.8" y="1306.3" transform="matrix(-1.836970e-16 1 -1 -1.836970e-16 2593.7698 93.7698)" class="st3" width="112.5" height="75"/>
<rect x="1100" y="1212.5" class="st3" width="112.5" height="75"/>
<rect x="1193.8" y="1118.8" transform="matrix(-1.836970e-16 1 -1 -1.836970e-16 2406.2698 -93.7302)" class="st3" width="112.5" height="75"/>
<rect x="900" y="1212.5" transform="matrix(-1 -1.224647e-16 1.224647e-16 -1 2000 2500.0396)" class="st4" width="200" height="75"/>
<rect x="1400" y="1100" class="st0" width="200" height="112.5"/>
<rect x="1400" y="1287.5" class="st0" width="200" height="112.5"/>
<rect x="1787.5" y="1212.5" class="st3" width="112.5" height="75"/>
<rect x="1712.5" y="1212.5" transform="matrix(-1 -1.224647e-16 1.224647e-16 -1 3500 2500.0396)" class="st4" width="75" height="75"/>
<rect x="1693.8" y="1306.3" transform="matrix(-1.836970e-16 1 -1 -1.836970e-16 3093.7698 -406.2302)" class="st3" width="112.5" height="75"/>
<rect x="1600" y="1212.5" class="st3" width="112.5" height="75"/>
<rect x="1693.8" y="1118.8" transform="matrix(-1.836970e-16 1 -1 -1.836970e-16 2906.2698 -593.7302)" class="st3" width="112.5" height="75"/>
<rect x="1400" y="1212.5" transform="matrix(-1 -1.224647e-16 1.224647e-16 -1 3000 2500.0396)" class="st4" width="200" height="75"/>
<rect x="243.8" y="1443.8" transform="matrix(-1.836970e-16 1 -1 -1.836970e-16 1843.7698 1156.2698)" class="st0" width="200" height="112.5"/>
<rect x="56.2" y="1443.8" transform="matrix(-1.836970e-16 1 -1 -1.836970e-16 1656.2698 1343.7698)" class="st0" width="200" height="112.5"/>
<rect y="1400" class="st1" width="100" height="200"/>
<rect x="150" y="1462.5" transform="matrix(-1.836970e-16 1 -1 -1.836970e-16 1750.0198 1250.0198)" class="st4" width="200" height="75"/>
<rect x="743.8" y="1443.8" transform="matrix(-1.836970e-16 1 -1 -1.836970e-16 2343.7698 656.2698)" class="st0" width="200" height="112.5"/>
<rect x="556.2" y="1443.8" transform="matrix(-1.836970e-16 1 -1 -1.836970e-16 2156.2698 843.7698)" class="st0" width="200" height="112.5"/>
<rect x="400" y="1400" class="st1" width="200" height="200"/>
<rect x="650" y="1462.5" transform="matrix(-1.836970e-16 1 -1 -1.836970e-16 2250.0198 750.0198)" class="st4" width="200" height="75"/>
<rect x="1243.8" y="1443.8" transform="matrix(-1.836970e-16 1 -1 -1.836970e-16 2843.7698 156.2698)" class="st0" width="200" height="112.5"/>
<rect x="1056.2" y="1443.8" transform="matrix(-1.836970e-16 1 -1 -1.836970e-16 2656.2698 343.7698)" class="st0" width="200" height="112.5"/>
<rect x="900" y="1400" class="st1" width="200" height="200"/>
<rect x="1150" y="1462.5" transform="matrix(-1.836970e-16 1 -1 -1.836970e-16 2750.0198 250.0198)" class="st4" width="200" height="75"/>
<rect x="1743.8" y="1443.8" transform="matrix(-1.836970e-16 1 -1 -1.836970e-16 3343.7698 -343.7302)" class="st0" width="200" height="112.5"/>
<rect x="1556.2" y="1443.8" transform="matrix(-1.836970e-16 1 -1 -1.836970e-16 3156.2698 -156.2302)" class="st0" width="200" height="112.5"/>
<rect x="1400" y="1400" class="st1" width="200" height="200"/>
<rect x="1650" y="1462.5" transform="matrix(-1.836970e-16 1 -1 -1.836970e-16 3250.0198 -249.9802)" class="st4" width="200" height="75"/>
<rect x="287.5" y="1100" class="st2" width="112.5" height="112.5"/>
<rect x="287.5" y="1287.5" class="st2" width="112.5" height="112.5"/>
<rect x="600" y="1100" class="st2" width="112.5" height="112.5"/>
<rect x="600" y="1287.5" class="st2" width="112.5" height="112.5"/>
<rect x="787.5" y="1100" class="st2" width="112.5" height="112.5"/>
<rect x="787.5" y="1287.5" class="st2" width="112.5" height="112.5"/>
<rect x="1100" y="1100" class="st2" width="112.5" height="112.5"/>
<rect x="1100" y="1287.5" class="st2" width="112.5" height="112.5"/>
<rect x="1287.5" y="1100" class="st2" width="112.5" height="112.5"/>
<rect x="1287.5" y="1287.5" class="st2" width="112.5" height="112.5"/>
<rect x="1600" y="1100" class="st2" width="112.5" height="112.5"/>
<rect x="1600" y="1287.5" class="st2" width="112.5" height="112.5"/>
<rect x="1787.5" y="1100" class="st2" width="112.5" height="112.5"/>
<rect x="1787.5" y="1287.5" class="st2" width="112.5" height="112.5"/>
<rect x="1900" y="1100" class="st0" width="100" height="112.5"/>
<rect x="1900" y="1287.5" class="st0" width="100" height="112.5"/>
<rect x="1900" y="1212.5" transform="matrix(-1 -1.224647e-16 1.224647e-16 -1 3900 2500.0396)" class="st4" width="100" height="75"/>
<rect x="1900" y="1400" class="st1" width="100" height="200"/>
<rect y="1600" class="st0" width="100" height="112.5"/>
<rect x="100" y="1600" class="st2" width="112.5" height="112.5"/>
<rect y="1787.5" class="st0" width="100" height="112.5"/>
<rect x="100" y="1787.5" class="st2" width="112.5" height="112.5"/>
<rect x="287.5" y="1712.5" class="st3" width="112.5" height="75"/>
<rect x="212.5" y="1712.5" transform="matrix(-1 -1.224647e-16 1.224647e-16 -1 500 3500.0596)" class="st4" width="75" height="75"/>
<rect x="193.8" y="1806.3" transform="matrix(-1.836970e-16 1 -1 -1.836970e-16 2093.7798 1593.7798)" class="st3" width="112.5" height="75"/>
<rect x="100" y="1712.5" class="st3" width="112.5" height="75"/>
<rect x="193.8" y="1618.8" transform="matrix(-1.836970e-16 1 -1 -1.836970e-16 1906.2798 1406.2798)" class="st3" width="112.5" height="75"/>
<rect y="1712.5" transform="matrix(-1 -1.224647e-16 1.224647e-16 -1 100 3500.0596)" class="st4" width="100" height="75"/>
<rect x="400" y="1600" class="st0" width="200" height="112.5"/>
<rect x="400" y="1787.5" class="st0" width="200" height="112.5"/>
<rect x="787.5" y="1712.5" class="st3" width="112.5" height="75"/>
<rect x="712.5" y="1712.5" transform="matrix(-1 -1.224647e-16 1.224647e-16 -1 1500 3500.0596)" class="st4" width="75" height="75"/>
<rect x="693.8" y="1806.3" transform="matrix(-1.836970e-16 1 -1 -1.836970e-16 2593.7798 1093.7798)" class="st3" width="112.5" height="75"/>
<rect x="600" y="1712.5" class="st3" width="112.5" height="75"/>
<rect x="693.8" y="1618.8" transform="matrix(-1.836970e-16 1 -1 -1.836970e-16 2406.2798 906.2798)" class="st3" width="112.5" height="75"/>
<rect x="400" y="1712.5" transform="matrix(-1 -1.224647e-16 1.224647e-16 -1 1000 3500.0596)" class="st4" width="200" height="75"/>
<rect x="900" y="1600" class="st0" width="200" height="112.5"/>
<rect x="900" y="1787.5" class="st0" width="200" height="112.5"/>
<rect x="1287.5" y="1712.5" class="st3" width="112.5" height="75"/>
<rect x="1212.5" y="1712.5" transform="matrix(-1 -1.224647e-16 1.224647e-16 -1 2500 3500.0596)" class="st4" width="75" height="75"/>
<rect x="1193.8" y="1806.3" transform="matrix(-1.836970e-16 1 -1 -1.836970e-16 3093.7798 593.7798)" class="st3" width="112.5" height="75"/>
<rect x="1100" y="1712.5" class="st3" width="112.5" height="75"/>
<rect x="1193.8" y="1618.8" transform="matrix(-1.836970e-16 1 -1 -1.836970e-16 2906.2798 406.2798)" class="st3" width="112.5" height="75"/>
<rect x="900" y="1712.5" transform="matrix(-1 -1.224647e-16 1.224647e-16 -1 2000 3500.0596)" class="st4" width="200" height="75"/>
<rect x="1400" y="1600" class="st0" width="200" height="112.5"/>
<rect x="1400" y="1787.5" class="st0" width="200" height="112.5"/>
<rect x="1787.5" y="1712.5" class="st3" width="112.5" height="75"/>
<rect x="1712.5" y="1712.5" transform="matrix(-1 -1.224647e-16 1.224647e-16 -1 3500 3500.0596)" class="st4" width="75" height="75"/>
<rect x="1693.8" y="1806.3" transform="matrix(-1.836970e-16 1 -1 -1.836970e-16 3593.7798 93.7798)" class="st3" width="112.5" height="75"/>
<rect x="1600" y="1712.5" class="st3" width="112.5" height="75"/>
<rect x="1693.8" y="1618.8" transform="matrix(-1.836970e-16 1 -1 -1.836970e-16 3406.2798 -93.7202)" class="st3" width="112.5" height="75"/>
<rect x="1400" y="1712.5" transform="matrix(-1 -1.224647e-16 1.224647e-16 -1 3000 3500.0596)" class="st4" width="200" height="75"/>
<rect x="293.8" y="1893.8" transform="matrix(-1.836970e-16 1 -1 -1.836970e-16 2293.7798 1606.2798)" class="st0" width="100" height="112.5"/>
<rect x="106.2" y="1893.8" transform="matrix(-1.836970e-16 1 -1 -1.836970e-16 2106.2798 1793.7798)" class="st0" width="100" height="112.5"/>
<rect y="1900" class="st1" width="100" height="100"/>
<rect x="200" y="1912.5" transform="matrix(-1.836970e-16 1 -1 -1.836970e-16 2200.0298 1700.0298)" class="st4" width="100" height="75"/>
<rect x="793.8" y="1893.8" transform="matrix(-1.836970e-16 1 -1 -1.836970e-16 2793.7798 1106.2798)" class="st0" width="100" height="112.5"/>
<rect x="606.2" y="1893.8" transform="matrix(-1.836970e-16 1 -1 -1.836970e-16 2606.2798 1293.7798)" class="st0" width="100" height="112.5"/>
<rect x="400" y="1900" class="st1" width="200" height="100"/>
<rect x="700" y="1912.5" transform="matrix(-1.836970e-16 1 -1 -1.836970e-16 2700.0298 1200.0298)" class="st4" width="100" height="75"/>
<rect x="1293.8" y="1893.8" transform="matrix(-1.836970e-16 1 -1 -1.836970e-16 3293.7798 606.2798)" class="st0" width="100" height="112.5"/>
<rect x="1106.2" y="1893.8" transform="matrix(-1.836970e-16 1 -1 -1.836970e-16 3106.2798 793.7798)" class="st0" width="100" height="112.5"/>
<rect x="900" y="1900" class="st1" width="200" height="100"/>
<rect x="1200" y="1912.5" transform="matrix(-1.836970e-16 1 -1 -1.836970e-16 3200.0298 700.0298)" class="st4" width="100" height="75"/>
<rect x="1793.8" y="1893.8" transform="matrix(-1.836970e-16 1 -1 -1.836970e-16 3793.7798 106.2798)" class="st0" width="100" height="112.5"/>
<rect x="1606.2" y="1893.8" transform="matrix(-1.836970e-16 1 -1 -1.836970e-16 3606.2798 293.7798)" class="st0" width="100" height="112.5"/>
<rect x="1400" y="1900" class="st1" width="200" height="100"/>
<rect x="1700" y="1912.5" transform="matrix(-1.836970e-16 1 -1 -1.836970e-16 3700.0298 200.0298)" class="st4" width="100" height="75"/>
<rect x="287.5" y="1600" class="st2" width="112.5" height="112.5"/>
<rect x="287.5" y="1787.5" class="st2" width="112.5" height="112.5"/>
<rect x="600" y="1600" class="st2" width="112.5" height="112.5"/>
<rect x="600" y="1787.5" class="st2" width="112.5" height="112.5"/>
<rect x="787.5" y="1600" class="st2" width="112.5" height="112.5"/>
<rect x="787.5" y="1787.5" class="st2" width="112.5" height="112.5"/>
<rect x="1100" y="1600" class="st2" width="112.5" height="112.5"/>
<rect x="1100" y="1787.5" class="st2" width="112.5" height="112.5"/>
<rect x="1287.5" y="1600" class="st2" width="112.5" height="112.5"/>
<rect x="1287.5" y="1787.5" class="st2" width="112.5" height="112.5"/>
<rect x="1600" y="1600" class="st2" width="112.5" height="112.5"/>
<rect x="1600" y="1787.5" class="st2" width="112.5" height="112.5"/>
<rect x="1787.5" y="1600" class="st2" width="112.5" height="112.5"/>
<rect x="1787.5" y="1787.5" class="st2" width="112.5" height="112.5"/>
<rect x="1900" y="1600" class="st0" width="100" height="112.5"/>
<rect x="1900" y="1787.5" class="st0" width="100" height="112.5"/>
<rect x="1900" y="1712.5" transform="matrix(-1 -1.224647e-16 1.224647e-16 -1 3900 3500.0596)" class="st4" width="100" height="75"/>
<rect x="1900" y="1900" class="st1" width="100" height="100"/>
</svg>
